PathFileType	4	(X/Y/Z)	/home/abdul/Desktop/myosuite/custom_workspace/IK/output/S14_12_3.trc
DataRate	CameraRate	NumFrames	NumMarkers	Units	OrigDataRate	OrigDataStartFrame	OrigNumFrames
200.0	200.0	67	3	mm	200.0	1	2126
Frame#	Time	V_Shoulder			V_Elbow			V_Wrist		
		X1	Y1	Z1	X2	Y2	Z2	X3	Y3	Z3

1	0.0	-184.13841031786947	758.5986066325278	295.53573831558225	-234.3197511312731	542.9187497535082	24.93015711684475	-187.16628526946948	370.88039333151903	15.427305657174198
2	0.005	-184.14056705650782	758.652945608325	295.4964595236854	-234.30806020853612	542.9206365617686	24.910811774165833	-187.1621339203419	370.8691925499802	15.37799044050739
3	0.01	-184.14290116919065	758.707276394753	295.45759799242364	-234.29706757921133	542.9234211818482	24.8917951302864	-187.15986461732555	370.8593326461115	15.325326862859088
4	0.015	-184.14541956148653	758.761481389011	295.4192574204197	-234.28683705342	542.9271375571066	24.873177526978868	-187.1595726209618	370.85092068094366	15.2693904261953
5	0.02	-184.14812906773196	758.8154399655436	295.3815428839917	-234.27743220941744	542.9318171292814	24.85503124959986	-187.16134938687946	370.84406278821905	15.210275543256754
6	0.025	-184.1510364296579	758.8690286890093	295.3445605721771	-234.2689161473702	542.937488537457	24.837430425770624	-187.1652819740189	370.83886365479174	15.148096207635657
7	0.03	-184.15414827442643	758.9221215322503	295.3084175163926	-234.26135123546663	542.9441773096523	24.820450920007243	-187.1714524390307	370.8354259776456	15.082986624471864
8	0.035	-184.15747109213044	758.9745900982192	295.273221315819	-234.25479884901412	542.9519055477391	24.804170224740478	-187.17993721844104	370.83384989836355	15.015101797696511
9	0.04	-184.16101121280977	759.0263038448338	295.2390798596025	-234.24931910321285	542.9606916064731	24.78866734816707	-187.19080650029983	370.83423241600883	14.94461806975659
10	0.045	-184.16477478303827	759.0771303117508	295.206101046962	-234.24497058033262	542.9705497674775	24.774022699373184	-187.20412358714486	370.8366667795009	14.871733609777014
11	0.05	-184.16876774213677	759.1269353480734	295.1743925062847	-234.24181005205187	542.9814899090884	24.760317971166124	-187.2199442522351	370.8412418607003	14.796668846157687
12	0.055	-184.1729957980679	759.1755833400472	295.1440613142765	-234.23989219774992	542.9935171730381	24.747636021043395	-187.2383160911208	370.8480415095446	14.71966683966263
13	0.06	-184.17746440306658	759.2229374378272	295.11521371621546	-234.2392693195733	543.0066316290078	24.736060750718178	-187.2592778707309	370.85714389270674	14.64099359313656
14	0.065	-184.18217872906152	759.2688597804527	295.0879548483337	-234.23999105512482	543.0208279381543	24.72567698460835	-187.28285887826576	370.868620817377	14.560938294082145
15	0.07	-184.187143642941	759.3132117182028	295.0623884633226	-234.2421040886489	543.0360950167681	24.716570347681724	-187.30907827228742	370.8825370418994	14.479813486448341
16	0.075	-184.19236368171582	759.3558540315656	295.0386166599283	-234.24565186161067	543.0524157012808	24.708827143034213	-187.33794443849715	370.89894957511854	14.397955168117567
17	0.08	-184.19784302762955	759.3966471460966	295.016739617568	-234.25067428358665	543.0697664158995	24.702534229559518	-187.36945435278153	370.9179069664214	14.315722810736649
18	0.085	-184.20358548326678	759.4354513425061	294.9968553368588	-234.25720744440397	543.0881168441922	24.697778900049787	-187.4035929541932	370.93944858858123	14.233499298713978
19	0.09	-184.20959444670657	759.4721269613657	294.97905938691434	-234.26528332848162	543.1074296060059	24.69464876004568	-187.44033253060752	370.96360391562894	14.151690784403103
20	0.095	-184.21587288676756	759.5065346018845	294.9634446602208	-234.27492953234014	543.1276599411362	24.693231607732493	-187.47963211986638	370.99039179809745	14.07072645671079
21	0.1	-184.22242331838808	759.5385353142647	294.95010113585755	-234.2861689862584	543.148755401218	24.693615315155824	-187.52143692927677	371.01981973809393	13.991058220605694
22	0.105	-184.2292477781846	759.5679907852032	294.9391156517899	-234.2990196810636	543.1706555513352	24.69588771100655	-187.56567777638145	371.0518831667641	13.913160285261544
23	0.11	-184.2363478002269	759.5947635161656	294.93057168690603	-234.31349440104748	543.1932916828878	24.700136465199904	-187.6122705539549	371.08656472681224	13.837528658846114
24	0.115	-184.2437243920684	759.6187169941168	294.92454915342995	-234.32960046400265	543.2165865392726	24.706448975448474	-187.6611157222045	371.1238335628385	13.76468054826378
25	0.12	-184.25137801106746	759.639715854449	294.9211242002925	-234.34733946937533	543.2404540559651	24.714912256002822	-187.712097831169	371.16364462233923	13.695153662474315
26	0.125	-184.25930854103237	759.6576260359071	294.9203690279913	-234.36670705552496	543.2647991165926	24.725612828707494	-187.76508507630723	371.2059379702999	13.629505418343683
27	0.13	-184.2675152692217	759.6723149273599	294.92235171542717	-234.38769266707635	543.2895173266102	24.738636616493572	-187.81992889025616	371.2506381203801	13.56831204833244
28	0.135	-184.27599686372858	759.6836515063275	294.9271360591518	-234.4102793333399	543.3144948061806	24.75406883940264	-187.8764635737091	371.29765338575334	13.512167609693826
29	0.14	-184.2847513512762	759.6915064692162	294.9347814254147	-234.4344434587614	543.3396080038636	24.77199391321029	-187.93450596832324	371.3468752527165	13.461682895235036
30	0.145	-184.2937760954492	759.6957523532707	294.94534261534926	-234.46015462634813	543.3647235326991	24.792495350691322	-187.99385517450713	371.398177780225	13.417484246090964
31	0.15	-184.30306777538388	759.6962636502923	294.958869743589	-234.48737541499676	543.3896980302544	24.815655665542483	-188.05429231686537	371.4514170285429	13.380212267368126
32	0.155	-184.31262236493822	759.6929169122208	294.9754081305602	-234.51606123162574	543.4143780441747	24.84155627895332	-188.1155803599896	371.5064305202137	13.35052044793663
33	0.16	-184.3224351123612	759.6855908487167	294.9949982086471	-234.54616015898816	543.4385999447377	24.87027742879076	-188.1774639771774	371.563036736567	13.329073686078143
34	0.165	-184.33250052047893	759.6741664169227	295.01767544238163	-234.57761282000988	543.4621898658725	24.901898081338956	-188.23966947454022	371.62103465296855	13.316546723136245
35	0.17	-184.342812327414	759.658526903613	295.04347026276645	-234.61035225946472	543.4849636760462	24.936495845512724	-188.30190477282173	371.68020331600025	13.313622487760792
36	0.175	-184.3533634878528	759.6385579999818	295.0724080157907	-234.6443038437607	543.5067269803611	24.974146889441055	-188.3638594490929	371.7403014657261	13.320990353787991
37	0.18	-184.36414615487445	759.614147869342	295.1045089251609	-234.67938517957072	543.5272751551377	25.01492585929629	-188.42520484031917	371.80106720615004	13.339344315250791
38	0.185	-184.37515166235494	759.5851872080402	295.1397880692209	-234.71550605199664	543.5463934161744	25.058905800225368	-188.48559421060526	371.86221772690874	13.369381082468191
39	0.19	-184.3863705079564	759.5515692999139	295.17825537199866	-234.7525683829085	543.5638569217947	25.10615807922204	-188.54466298372068	371.9234490791638	13.41179810361458
40	0.195	-184.39779233671513	759.5131900646411	295.2199156082749	-234.79046621004989	543.5794309116905	25.156752309763036	-188.60202904228834	371.98443600856774	13.46729151661943
41	0.2	-184.40940592523714	759.4699481003486	295.26476842252936	-234.82908568744617	543.592870882469	25.21075627801744	-188.65729309478337	372.0448318480641	13.536554036691095
42	0.205	-184.42119916651245	759.4217447208604	295.3128083615848	-234.86830510759654	543.6039228007005	25.268235870427056	-188.71003911124163	372.1042684731606	13.620272785193727
43	0.21	-184.43315905535806	759.3684839879828	295.3640249207313	-234.90799494587046	543.6123233541368	25.329255002446054	-188.75983482831248	372.16235632217126	13.719127066031145
44	0.215	-184.44527167449982	759.3100727392302	295.41840260307646	-234.94801792746702	543.6178002416543	25.393875548221523	-188.80623232401558	372.21868448376847	13.83378609610325
45	0.22	-184.4575221813033	759.2464206114015	295.47592099183663	-234.9882291172312	543.6200725023245	25.462157270992385	-188.84876866227393	372.2728208540126	13.964906696796884
46	0.225	-184.4698947951649	759.1774400604245	295.53655483524955	-235.02847603255375	543.6188508838889	25.534157753982704	-188.88696660699617	372.32431236483876	14.113130953851407
47	0.23	-184.48237278557403	759.1030463778808	295.6002741437565	-235.0685987795123	543.6138382507513	25.609932331566718	-188.92033540517434	372.37268528577664	14.279083853297031
48	0.235	-184.49493846085826	759.023157704633	295.6670442990765	-235.10843021234075	543.6047300314583	25.68953402048744	-188.9483716381469	372.41744560046004	14.463370901498852
49	0.24	-184.50757315762453	758.9376950419593	295.73682617475976	-235.14779611624024	543.5912147054696	25.773013450917844	-188.97056013985463	372.45807945925264	14.666575737648841
50	0.245	-184.52025723090924	758.8465822606058	295.8095762677884	-235.1865154134728	543.5729743288603	25.860418797164165	-188.98637498058918	372.49405370906595	14.889257747329602
51	0.25	-184.5329700450537	758.7497461081504	295.8852468407601	-235.22440039260175	543.5496850984216	25.95179570782416	-188.99528051440413	372.52481650118636	15.131949686024889
52	0.255	-184.54568996531899	758.647116215068	295.96378607416983	-235.26125696066842	543.5210179534615	26.047187235229686	-188.99673248802472	372.549797977657	15.395155321670618
53	0.26	-184.5583943502597	758.5386250998686	296.045138228281	-235.29688491801727	543.4866392144229	26.14663376402219	-188.99017920876173	372.5684110364716	15.679347105524002
54	0.265	-184.57105954487432	758.4242081736696	296.12924381405645	-235.33107825540537	543.4462112572648	26.250172938732184	-188.9750627686047	372.5800521755465	15.98496388077568
55	0.27	-184.5836608745536	758.3038037445463	296.21603977259946	-235.36362547295494	543.3993932223723	26.35783959025855	-188.95082032134397	372.58410241512684	16.31240863843798
56	0.275	-184.5961726398489	758.1773530219833	296.3054596625387	-235.3943099204318	543.3458417565773	26.46966566117142	-188.9168854092525	372.57992829797564	16.662046330110417
57	0.28	-184.60856811208484	758.0448001217361	296.3974338547696	-235.42291015825575	543.2852117867033	26.585680129792138	-188.87268933554688	372.5668829663666	17.034201747249156
58	0.285	-184.6208195298418	757.9060920713864	296.4918897339582	-235.44920033857494	543.2171573228591	26.705908933036383	-188.81766257854815	372.5443073145799	17.429157476549143
59	0.29	-184.63289809633605	757.7611788168534	296.5887519061901	-235.47295060566177	543.1413322895444	26.83037488804052	-188.75123624317456	372.5115312152665	17.847151940984993
60	0.295	-184.6447739777268	757.6100132301036	296.6879424121444	-235.49392751481622	543.0573913824485	26.95909761262727	-188.67284354512654	372.467874817713	18.28837753594778
61	0.3	-184.65641630238179	757.452551118272	296.7893809451561	-235.51189446889137	542.9649909486661	27.0920934447041	-188.58192132286837	372.41264991570387	18.75297886975975
62	0.305	-184.66779316113403	757.2887512343856	296.89298507352544	-235.5266121714882	542.8637898878919	27.229375360726152	-188.47791157227408	372.3451613823414	19.241051117646364
63	0.31	-184.67887160856512	757.118575289854	296.9986704664265	-235.53783909580045	542.7534505719996	27.37095289339458	-188.36026299859014	372.2647086688528	19.75263849799495
64	0.315	-184.68961766535085	756.9419879688631	297.10635112275867	-235.5453319680271	542.6336397802703	27.516832048800772	-188.22843258017423	372.17058736408126	20.287732879431978
65	0.32	-184.69999632170803	756.7589569447877	297.2159396022859	-235.54884626421	542.5040296473959	27.667015223266333	-188.08188713830174	372.06209081103793	20.84627252690607
66	0.325	-184.70997154198173	756.5694528986984	297.32734725840567	-235.5481367192963	542.3642986212535	27.821501120167973	-187.92010490718982	371.93851177657154	21.428140994572637
67	0.33	-184.7195062704138	756.3734495400287	297.4404844718876	-235.54295784717263	542.2141324273376	27.980284667074798	-187.74257709827504	371.79914416990795	22.033166172838992
